#!OML:ASF X:\für Bonn\!DataBase\2005_08_12_Daniel\c3d\Daniel.ASF
:FULLY-SPECIFIED
:DEGREES
1
root -1.09263 17.4771 2.91024 172.708 2.23179 -183.689
lowerback 16.1525 -1.68813 -4.22038
upperback 4.84702 -2.2671 -2.91253
thorax -3.81662 -0.771747 -0.276153
lowerneck 3.0202 0.682286 -6.19625
upperneck 23.8542 3.9736 0.0158726
head 6.72117 2.40644 1.36305
rclavicle 1.77912e-014 3.33958e-014
rhumerus -25.908 -7.2475 -90.9344
rradius 4.07494
rwrist 19.4354
rhand -27.0616 14.5945
rfingers 7.12502
rthumb -0.479565 -15.3847
lclavicle 1.77912e-014 3.33958e-014
lhumerus -29.1143 17.8963 78.7999
lradius 28.5051
lwrist -16.9249
lhand -12.6777 -7.20745
lfingers 7.12502
lthumb 13.4038 22.3413
rfemur -19.0379 29.8653 7.01311
rtibia 15.3054
rfoot -26.1047 -29.8125
rtoes -5.43605
lfemur 11.572 -10.4912 -27.097
ltibia 21.619
lfoot -26.2011 9.02264
ltoes -9.44104
2
root -1.06887 17.4601 2.79226 172.75 2.16476 -183.703
lowerback 16.1205 -1.70664 -4.0789
upperback 4.87608 -2.26391 -2.89944
thorax -3.77498 -0.770866 -0.343289
lowerneck 3.19935 0.637498 -6.11246
upperneck 23.7623 3.91719 -0.0863931
head 6.66595 2.38433 1.30835
rclavicle -3.0911e-014 -3.18055e-014
rhumerus -25.8797 -7.45497 -90.8919
rradius 3.72593
rwrist 19.6185
rhand -27.125 14.5554
rfingers 7.12502
rthumb -0.54079 -15.4236
lclavicle -3.0911e-014 -3.18055e-014
lhumerus -29.0904 17.4095 79.0453
lradius 29.0549
lwrist -16.0348
lhand -12.5586 -7.17731
lfingers 7.12502
lthumb 13.5186 22.3639
rfemur -19.4731 31.193 6.46282
rtibia 15.3444
rfoot -27.1444 -30.8359
rtoes -6.48719
lfemur 12.2102 -10.4462 -27.0796
ltibia 21.1771
lfoot -26.3956 8.88821
ltoes -9.44553
3
root -1.04306 17.4398 2.67335 172.729 2.1075 -183.686
lowerback 16.1789 -1.72714 -3.91002
upperback 4.88855 -2.26558 -2.85908
thorax -3.79929 -0.77183 -0.394207
lowerneck 3.41959 0.601887 -6.09426
upperneck 23.6889 3.88645 -0.197011
head 6.60928 2.37235 1.26325
rclavicle 3.89618e-014 -5.56597e-015
rhumerus -25.9434 -7.62048 -90.7944
rradius 3.46659
rwrist 19.7784
rhand -27.1638 14.4089
rfingers 7.12502
rthumb -0.578259 -15.5701
lclavicle 3.89618e-014 -5.56597e-015
lhumerus -29.1551 17.0759 79.2708
lradius 29.6151
lwrist -15.2042
lhand -12.4144 -7.19785
lfingers 7.12502
lthumb 13.6576 22.3341
rfemur -19.653 31.9037 6.20932
rtibia 15.3946
rfoot -27.7972 -31.282
rtoes -7.3576
lfemur 12.8743 -10.3185 -27.0075
ltibia 20.8202
lfoot -26.613 8.7312
ltoes -9.66209
4
root -1.01589 17.4183 2.55442 172.723 2.05073 -183.648
lowerback 16.2035 -1.75112 -3.69475
upperback 4.92687 -2.25856 -2.83229
thorax -3.78094 -0.768006 -0.48814
lowerneck 3.56163 0.557518 -6.04622
upperneck 23.6586 3.84742 -0.300203
head 6.58006 2.35704 1.2176
rclavicle 3.8763e-014 4.01545e-014
rhumerus -25.9127 -7.82164 -90.7274
rradius 3.17924
rwrist 19.9235
rhand -27.0678 14.2826
rfingers 7.12502
rthumb -0.485561 -15.6965
lclavicle 3.8763e-014 4.01545e-014
lhumerus -29.1722 16.701 79.478
lradius 30.1359
lwrist -14.3534
lhand -12.3131 -7.24927
lfingers 7.12502
lthumb 13.7553 22.276
rfemur -19.6763 31.9365 6.18927
rtibia 15.3978
rfoot -27.7977 -31.1825
rtoes -8.3251
lfemur 13.468 -10.2047 -26.9041
ltibia 20.5719
lfoot -26.9112 8.54906
ltoes -9.80336
5
root -0.987651 17.3953 2.43535 172.703 1.98759 -183.574
lowerback 16.2414 -1.77814 -3.43384
upperback 4.97233 -2.24759 -2.79334
thorax -3.7637 -0.76202 -0.595551
lowerneck 3.69693 0.497878 -6.009
upperneck 23.632 3.79989 -0.451789
head 6.55471 2.3339 1.15824
rclavicle -1.6201e-014 8.34896e-015
rhumerus -25.8536 -8.02466 -90.6231
rradius 2.87472
rwrist 20.1119
rhand -26.936 14.0656
rfingers 7.12502
rthumb -0.358296 -15.9138
lclavicle -1.6201e-014 8.34896e-015
lhumerus -29.218 16.4221 79.677
lradius 30.65
lwrist -13.5843
lhand -12.2668 -7.34065
lfingers 7.12502
lthumb 13.7998 22.1816
rfemur -19.564 31.5281 6.37817
rtibia 15.4084
rfoot -27.1831 -30.7279
rtoes -8.59609
lfemur 14.0309 -10.0029 -26.7251
ltibia 20.4031
lfoot -27.2102 8.33338
ltoes -10.1054
6
root -0.958761 17.3725 2.31671 172.64 1.93709 -183.461
lowerback 16.3264 -1.80339 -3.11441
upperback 5.04118 -2.22121 -2.75087
thorax -3.74924 -0.746325 -0.734622
lowerneck 3.77118 0.434899 -5.99906
upperneck 23.632 3.73674 -0.536228
head 6.54651 2.30317 1.12598
rclavicle 2.25621e-014 2.50469e-014
rhumerus -25.7886 -8.25095 -90.5047
rradius 2.6581
rwrist 20.2448
rhand -26.6464 13.7795
rfingers 7.12502
rthumb -0.0785688 -16.2002
lclavicle 2.25621e-014 2.50469e-014
lhumerus -29.246 16.1011 79.9003
lradius 31.1427
lwrist -12.8649
lhand -12.3133 -7.5196
lfingers 7.12502
lthumb 13.755 22.0057
rfemur -19.2912 30.3338 6.86746
rtibia 15.4634
rfoot -25.7208 -29.6514
rtoes -8.43356
lfemur 14.5931 -9.74653 -26.485
ltibia 20.3062
lfoot -27.5164 8.07032
ltoes -10.5331
7
root -0.928484 17.3511 2.19798 172.575 1.87148 -183.349
lowerback 16.4189 -1.83852 -2.7863
upperback 5.1063 -2.20657 -2.7215
thorax -3.74324 -0.735742 -0.890194
lowerneck 3.83322 0.3707 -5.97028
upperneck 23.6702 3.68177 -0.626558
head 6.55297 2.27857 1.09017
rclavicle 3.97569e-016 1.55052e-014
rhumerus -25.7519 -8.48367 -90.4072
rradius 2.50404
rwrist 20.4068
rhand -26.2871 13.4596
rfingers 7.12502
rthumb 0.268425 -16.52
lclavicle 3.97569e-016 1.55052e-014
lhumerus -29.3025 15.7654 80.0957
lradius 31.6293
lwrist -12.1516
lhand -12.3992 -7.6586
lfingers 7.12502
lthumb 13.6722 21.8723
rfemur -19.0098 28.7689 7.46222
rtibia 15.6267
rfoot -23.8413 -28.3829
rtoes -7.82129
lfemur 15.1223 -9.50535 -26.2295
ltibia 20.2715
lfoot -27.8504 7.78854
ltoes -10.7759
8
root -0.897359 17.3296 2.08094 172.476 1.81908 -183.216
lowerback 16.5515 -1.86343 -2.43182
upperback 5.20145 -2.16747 -2.68478
thorax -3.72719 -0.710383 -1.05744
lowerneck 3.81862 0.304955 -5.97293
upperneck 23.7313 3.61569 -0.662225
head 6.57824 2.24655 1.07835
rclavicle 2.52457e-014 -3.49861e-014
rhumerus -25.6245 -8.74819 -90.2887
rradius 2.30466
rwrist 20.5496
rhand -25.9055 13.0848
rfingers 7.12502
rthumb 0.637042 -16.8939
lclavicle 2.52457e-014 -3.49861e-014
lhumerus -29.331 15.4475 80.3159
lradius 32.1023
lwrist -11.486
lhand -12.5945 -7.85055
lfingers 7.12502
lthumb 13.484 21.6929
rfemur -18.7374 27.0053 8.14697
rtibia 15.9305
rfoot -21.7938 -26.9711
rtoes -6.85062
lfemur 15.6385 -9.21142 -25.9258
ltibia 20.3048
lfoot -28.1264 7.46603
ltoes -11.0506
